<svg version="1.1" id="Layer_1" xmlns="http://www.w3.org/2000/svg" xmlns:xlink="http://www.w3.org/1999/xlink" x="0px" y="0px"
	 width="100%" viewBox="0 0 1378 1116" enable-background="new 0 0 1378 1116" xml:space="preserve">
<path fill="#F2BB41" opacity="1.000000" stroke="none" 
	d="
M698.000000,1117.000000 
	C465.333344,1117.000000 233.166672,1117.000000 1.000000,1117.000000 
	C1.000000,745.000000 1.000000,373.000000 1.000000,1.000000 
	C460.333344,1.000000 919.666687,1.000000 1379.000000,1.000000 
	C1379.000000,373.000000 1379.000000,745.000000 1379.000000,1117.000000 
	C1152.166626,1117.000000 925.333313,1117.000000 698.000000,1117.000000 
M890.243225,441.541565 
	C890.283752,402.550446 890.379089,363.559235 890.321411,324.568268 
	C890.308960,316.158813 884.855896,313.585083 877.035828,318.095947 
	C852.947205,331.991028 828.893494,345.946686 804.812927,359.855804 
	C802.637817,361.112183 800.366943,362.202728 797.058899,363.937469 
	C797.058899,360.890472 797.060181,359.128357 797.058716,357.366272 
	C797.050720,347.701447 797.093811,338.036194 797.015137,328.371948 
	C796.963684,322.062744 794.561523,319.666901 788.249695,319.640442 
	C769.920471,319.563629 751.590942,319.570648 733.261658,319.508484 
	C731.567566,319.502747 729.874390,319.238007 726.924622,318.986359 
	C746.252319,301.934875 755.730835,281.736389 754.709900,257.156219 
	C753.696838,232.768921 744.440369,212.254211 724.026978,198.137650 
	C704.976013,184.963272 683.625427,179.956787 660.965088,186.003387 
	C629.380676,194.431259 610.789734,215.864944 603.765869,247.321503 
	C602.922119,247.208344 602.735596,247.234863 602.612244,247.158890 
	C601.341492,246.376129 600.098022,245.548080 598.815125,244.786270 
	C578.690796,232.836594 557.286499,229.914154 535.094849,237.261032 
	C494.131866,250.822449 473.276428,294.765961 487.434875,335.222046 
	C500.867950,373.605408 545.043274,395.279724 583.329407,381.147583 
	C593.236877,377.490540 602.869873,374.329803 613.676636,375.095306 
	C618.397705,375.429718 619.537964,376.755005 619.470581,381.205933 
	C619.193115,399.532013 619.171936,417.863098 619.199829,436.192139 
	C619.213257,444.977234 621.875305,447.708191 630.413696,447.733917 
	C682.732605,447.891602 735.051758,447.994202 787.370789,448.073730 
	C794.052368,448.083893 797.052368,445.015411 797.080750,438.250671 
	C797.125549,427.586304 797.036133,416.921448 797.054749,406.256866 
	C797.057739,404.541595 797.326477,402.826782 797.522400,400.523438 
	C799.300049,401.311768 800.361877,401.671722 801.314331,402.221191 
	C826.968506,417.020020 852.596680,431.864075 878.267395,446.634125 
	C884.269531,450.087555 887.888489,448.689392 890.243225,441.541565 
M782.258850,702.660583 
	C788.925293,724.881470 795.548828,747.115356 802.270752,769.319397 
	C808.320557,789.303040 814.557190,809.230286 820.567200,829.225769 
	C827.195923,851.279785 833.581787,873.406860 840.219971,895.458008 
	C846.189026,915.286194 852.437256,935.030334 858.397034,954.861267 
	C860.785156,962.807800 863.120605,964.130249 872.064697,961.209045 
	C828.280273,800.987488 784.489014,640.740906 740.432251,479.522522 
	C731.938049,489.373993 722.971802,496.771942 710.648743,497.741211 
	C698.473267,498.698853 687.461426,495.112427 677.626282,486.187988 
	C629.051636,644.743164 580.707825,802.544861 532.325623,960.471741 
	C545.348145,962.460449 545.989197,962.075256 549.251892,951.009827 
	C549.439453,950.373840 549.685730,949.755371 549.895874,949.125854 
	C559.601074,920.052551 569.345398,890.992126 578.996704,861.900879 
	C586.297913,839.893311 593.434021,817.830933 600.727295,795.820679 
	C609.792725,768.462341 618.968994,741.140808 628.051453,713.788147 
	C635.987305,689.889221 643.866394,665.971375 651.757812,642.057739 
	C658.973267,620.192200 666.158936,598.316895 673.381836,576.453857 
	C679.046509,559.307251 684.687073,542.151978 690.555542,525.075195 
	C690.997620,523.788879 693.161926,522.297058 694.558044,522.263855 
	C704.549866,522.026489 714.553528,522.016663 724.543823,522.287720 
	C725.972717,522.326538 728.191040,524.000488 728.623901,525.367371 
	C734.426453,543.688171 740.017578,562.076477 745.578613,580.472961 
	C752.291260,602.679260 758.938232,624.905457 765.589111,647.130371 
	C771.053406,665.390198 776.482117,683.660706 782.258850,702.660583 
M613.561401,471.250092 
	C630.312500,468.672485 647.069031,466.128296 663.804504,463.453217 
	C665.128174,463.241638 666.306641,462.121490 667.552612,461.423615 
	C666.141968,461.024414 664.685242,460.161530 663.327698,460.296509 
	C646.441895,461.975006 629.570984,463.803009 612.695129,465.581787 
	C608.104736,466.065613 602.449097,461.891418 601.970581,457.481537 
	C601.539612,453.509308 600.182556,450.717316 595.552368,451.025269 
	C590.624573,451.353027 589.891418,455.112549 590.474426,458.562958 
	C591.160522,462.623810 589.290161,463.641296 586.130981,464.145477 
	C577.429321,465.534058 568.724365,466.901703 560.021484,468.282776 
	C552.634216,469.454987 545.227966,470.523041 537.867737,471.846436 
	C532.138611,472.876556 528.264221,477.932190 528.849976,483.161682 
	C529.336731,487.507507 533.300293,490.085175 539.421814,489.973328 
	C540.748352,489.949066 542.090515,489.839905 543.393188,489.596741 
	C558.734192,486.733185 574.079224,483.889465 589.397034,480.906006 
	C592.609619,480.280273 594.460144,480.687378 594.846680,484.449890 
	C595.223572,488.118042 596.989075,490.831635 601.359619,490.183807 
	C605.567444,489.560150 606.244629,486.411163 605.709839,483.088928 
	C604.737915,477.051788 608.469604,474.084717 613.561401,471.250092 
M711.656433,489.988037 
	C728.812439,487.149200 740.735779,473.620636 741.837158,455.422668 
	C718.170105,455.422668 694.523438,455.422668 670.170776,455.422668 
	C671.267151,465.932220 674.227661,475.056610 681.938416,482.252716 
	C690.201172,489.963959 700.289490,490.719421 711.656433,489.988037 
z"/>
<path fill="#020100" opacity="1.000000" stroke="none" 
	d="
M890.180542,441.949219 
	C887.888489,448.689392 884.269531,450.087555 878.267395,446.634125 
	C852.596680,431.864075 826.968506,417.020020 801.314331,402.221191 
	C800.361877,401.671722 799.300049,401.311768 797.522400,400.523438 
	C797.326477,402.826782 797.057739,404.541595 797.054749,406.256866 
	C797.036133,416.921448 797.125549,427.586304 797.080750,438.250671 
	C797.052368,445.015411 794.052368,448.083893 787.370789,448.073730 
	C735.051758,447.994202 682.732605,447.891602 630.413696,447.733917 
	C621.875305,447.708191 619.213257,444.977234 619.199829,436.192139 
	C619.171936,417.863098 619.193115,399.532013 619.470581,381.205933 
	C619.537964,376.755005 618.397705,375.429718 613.676636,375.095306 
	C602.869873,374.329803 593.236877,377.490540 583.329407,381.147583 
	C545.043274,395.279724 500.867950,373.605408 487.434875,335.222046 
	C473.276428,294.765961 494.131866,250.822449 535.094849,237.261032 
	C557.286499,229.914154 578.690796,232.836594 598.815125,244.786270 
	C600.098022,245.548080 601.341492,246.376129 602.612244,247.158890 
	C602.735596,247.234863 602.922119,247.208344 603.765869,247.321503 
	C610.789734,215.864944 629.380676,194.431259 660.965088,186.003387 
	C683.625427,179.956787 704.976013,184.963272 724.026978,198.137650 
	C744.440369,212.254211 753.696838,232.768921 754.709900,257.156219 
	C755.730835,281.736389 746.252319,301.934875 726.924622,318.986359 
	C729.874390,319.238007 731.567566,319.502747 733.261658,319.508484 
	C751.590942,319.570648 769.920471,319.563629 788.249695,319.640442 
	C794.561523,319.666901 796.963684,322.062744 797.015137,328.371948 
	C797.093811,338.036194 797.050720,347.701447 797.058716,357.366272 
	C797.060181,359.128357 797.058899,360.890472 797.058899,363.937469 
	C800.366943,362.202728 802.637817,361.112183 804.812927,359.855804 
	C828.893494,345.946686 852.947205,331.991028 877.035828,318.095947 
	C884.855896,313.585083 890.308960,316.158813 890.321411,324.568268 
	C890.379089,363.559235 890.283752,402.550446 890.180542,441.949219 
z"/>
<path fill="#080601" opacity="1.000000" stroke="none" 
	d="
M782.092773,702.293579 
	C776.482117,683.660706 771.053406,665.390198 765.589111,647.130371 
	C758.938232,624.905457 752.291260,602.679260 745.578613,580.472961 
	C740.017578,562.076477 734.426453,543.688171 728.623901,525.367371 
	C728.191040,524.000488 725.972717,522.326538 724.543823,522.287720 
	C714.553528,522.016663 704.549866,522.026489 694.558044,522.263855 
	C693.161926,522.297058 690.997620,523.788879 690.555542,525.075195 
	C684.687073,542.151978 679.046509,559.307251 673.381836,576.453857 
	C666.158936,598.316895 658.973267,620.192200 651.757812,642.057739 
	C643.866394,665.971375 635.987305,689.889221 628.051453,713.788147 
	C618.968994,741.140808 609.792725,768.462341 600.727295,795.820679 
	C593.434021,817.830933 586.297913,839.893311 578.996704,861.900879 
	C569.345398,890.992126 559.601074,920.052551 549.895874,949.125854 
	C549.685730,949.755371 549.439453,950.373840 549.251892,951.009827 
	C545.989197,962.075256 545.348145,962.460449 532.325623,960.471741 
	C580.707825,802.544861 629.051636,644.743164 677.626282,486.187988 
	C687.461426,495.112427 698.473267,498.698853 710.648743,497.741211 
	C722.971802,496.771942 731.938049,489.373993 740.432251,479.522522 
	C784.489014,640.740906 828.280273,800.987488 872.064697,961.209045 
	C863.120605,964.130249 860.785156,962.807800 858.397034,954.861267 
	C852.437256,935.030334 846.189026,915.286194 840.219971,895.458008 
	C833.581787,873.406860 827.195923,851.279785 820.567200,829.225769 
	C814.557190,809.230286 808.320557,789.303040 802.270752,769.319397 
	C795.548828,747.115356 788.925293,724.881470 782.092773,702.293579 
z"/>
<path fill="#0D0902" opacity="1.000000" stroke="none" 
	d="
M613.133667,471.268250 
	C608.469604,474.084717 604.737915,477.051788 605.709839,483.088928 
	C606.244629,486.411163 605.567444,489.560150 601.359619,490.183807 
	C596.989075,490.831635 595.223572,488.118042 594.846680,484.449890 
	C594.460144,480.687378 592.609619,480.280273 589.397034,480.906006 
	C574.079224,483.889465 558.734192,486.733185 543.393188,489.596741 
	C542.090515,489.839905 540.748352,489.949066 539.421814,489.973328 
	C533.300293,490.085175 529.336731,487.507507 528.849976,483.161682 
	C528.264221,477.932190 532.138611,472.876556 537.867737,471.846436 
	C545.227966,470.523041 552.634216,469.454987 560.021484,468.282776 
	C568.724365,466.901703 577.429321,465.534058 586.130981,464.145477 
	C589.290161,463.641296 591.160522,462.623810 590.474426,458.562958 
	C589.891418,455.112549 590.624573,451.353027 595.552368,451.025269 
	C600.182556,450.717316 601.539612,453.509308 601.970581,457.481537 
	C602.449097,461.891418 608.104736,466.065613 612.695129,465.581787 
	C629.570984,463.803009 646.441895,461.975006 663.327698,460.296509 
	C664.685242,460.161530 666.141968,461.024414 667.552612,461.423615 
	C666.306641,462.121490 665.128174,463.241638 663.804504,463.453217 
	C647.069031,466.128296 630.312500,468.672485 613.133667,471.268250 
z"/>
<path fill="#070501" opacity="1.000000" stroke="none" 
	d="
M711.223022,490.014679 
	C700.289490,490.719421 690.201172,489.963959 681.938416,482.252716 
	C674.227661,475.056610 671.267151,465.932220 670.170776,455.422668 
	C694.523438,455.422668 718.170105,455.422668 741.837158,455.422668 
	C740.735779,473.620636 728.812439,487.149200 711.223022,490.014679 
z"/>
</svg>